%TF.GenerationSoftware,KiCad,Pcbnew,7.0.6-0*%
%TF.CreationDate,2023-08-26T23:16:56+02:00*%
%TF.ProjectId,Prometheus,50726f6d-6574-4686-9575-732e6b696361,rev?*%
%TF.SameCoordinates,Original*%
%TF.FileFunction,Legend,Bot*%
%TF.FilePolarity,Positive*%
%FSLAX46Y46*%
G04 Gerber Fmt 4.6, Leading zero omitted, Abs format (unit mm)*
G04 Created by KiCad (PCBNEW 7.0.6-0) date 2023-08-26 23:16:56*
%MOMM*%
%LPD*%
G01*
G04 APERTURE LIST*
%ADD10C,0.254000*%
G04 APERTURE END LIST*
D10*
X103364800Y-107302800D02*
X103364800Y-106032800D01*
X103364800Y-106032800D02*
X102602800Y-106032800D01*
X99554800Y-106032800D02*
X99300800Y-106286800D01*
X101739200Y-106642400D02*
X101485200Y-106388400D01*
X100824800Y-106693200D02*
X100824800Y-104762800D01*
X99707200Y-107302800D02*
X103364800Y-107302800D01*
X101485200Y-105728000D02*
X101840800Y-105372400D01*
X101485200Y-104356400D02*
X101739200Y-104102400D01*
X102247200Y-105372400D02*
X101840800Y-105372400D01*
X102755200Y-106642400D02*
X101739200Y-106642400D01*
X100215200Y-106032800D02*
X99554800Y-106032800D01*
X100824800Y-104762800D02*
X99961200Y-104762800D01*
X103364800Y-104762800D02*
X103364800Y-106032800D01*
X99961200Y-104762800D02*
X99554800Y-105169200D01*
X101739200Y-104102400D02*
X102755200Y-104102400D01*
X101485200Y-106388400D02*
X101485200Y-105728000D01*
X99554800Y-105778800D02*
X99885000Y-106032800D01*
X99554800Y-105169200D02*
X99554800Y-105778800D01*
X99300800Y-106896400D02*
X99707200Y-107302800D01*
X101840800Y-105372400D02*
X101485200Y-105016800D01*
X101485200Y-105016800D02*
X101485200Y-104356400D01*
X99300800Y-106286800D02*
X99300800Y-106896400D01*
X102094800Y-104762800D02*
X103364800Y-104762800D01*
M02*
