M48
; DRILL file {KiCad 7.0.6-0} date 2023 August 26, Saturday 23:16:53
; FORMAT={-:-/ absolute / inch / decimal}
; #@! TF.CreationDate,2023-08-26T23:16:53+02:00
; #@! TF.GenerationSoftware,Kicad,Pcbnew,7.0.6-0
; #@! TF.FileFunction,Plated,1,4,PTH
FMAT,2
INCH
; #@! TA.AperFunction,Plated,PTH,ViaDrill
T1C0.0118
; #@! TA.AperFunction,Plated,PTH,ComponentDrill
T2C0.0315
; #@! TA.AperFunction,Plated,PTH,ComponentDrill
T3C0.0394
; #@! TA.AperFunction,Plated,PTH,ComponentDrill
T4C0.0433
; #@! TA.AperFunction,Plated,PTH,ComponentDrill
T5C0.0591
; #@! TA.AperFunction,Plated,PTH,ComponentDrill
T6C0.0701
%
G90
G05
T1
X2.8612Y-1.4085
X2.9281Y-1.3494
X2.9911Y-1.4085
X3.0068Y-3.8258
X3.0462Y-3.8258
X3.1131Y-3.8809
X3.1131Y-3.936
X3.2037Y-2.8219
X3.2037Y-2.8849
X3.247Y-3.7589
X3.247Y-3.722
X3.5462Y-2.9124
X3.5491Y-3.8745
X3.5501Y-4.3179
X3.6315Y-4.1445
X3.6515Y-3.8745
X3.684Y-4.3215
X3.9045Y-2.5384
X4.0344Y-2.688
X4.0816Y-2.5502
X4.1053Y-1.1526
X4.1722Y-1.0935
X4.2391Y-1.1526
X4.2667Y-2.5817
X4.275Y-3.1206
X4.2785Y-2.1171
X4.2982Y-3.1486
X4.2991Y-3.2372
X4.307Y-3.0916
X4.3115Y-3.1805
X4.3179Y-3.3534
X4.3194Y-3.4715
X4.3315Y-2.3165
X4.3315Y-3.2085
X4.3434Y-3.4321
X4.3464Y-3.9262
X4.3532Y-3.2365
X4.3651Y-2.5817
X4.369Y-3.3927
X4.373Y-1.7746
X4.3743Y-3.2635
X4.3834Y-3.6998
X4.3834Y-3.8416
X4.3848Y-2.5423
X4.3887Y-3.5
X4.3931Y-3.4321
X4.3994Y-2.986
X4.4045Y-3.1299
X4.4202Y-2.7786
X4.4202Y-2.8179
X4.4478Y-1.8179
X4.4478Y-2.751
X4.4635Y-4.4046
X4.4842Y-3.9242
X4.499Y-2.1605
X4.499Y-2.2156
X4.499Y-2.2707
X4.5015Y-2.6485
X4.5015Y-3.2845
X4.5029Y-2.0975
X4.5029Y-2.314
X4.5029Y-2.5148
X4.5035Y-1.9705
X4.5058Y-3.0266
X4.5075Y-3.3865
X4.5108Y-1.8416
X4.5155Y-3.4198
X4.5186Y-2.9242
X4.5226Y-2.1329
X4.5226Y-2.188
X4.5226Y-2.2431
X4.5226Y-2.9833
X4.5245Y-4.4101
X4.5265Y-2.7864
X4.5351Y-3.449
X4.5423Y-4.1368
X4.5435Y-2.6825
X4.5462Y-2.9557
X4.5549Y-3.4769
X4.5635Y-4.3105
X4.5698Y-2.9085
X4.5702Y-3.5076
X4.5738Y-1.7274
X4.5738Y-4.4085
X4.5777Y-1.9479
X4.5922Y-3.5338
X4.5938Y-3.1342
X4.6013Y-3.6954
X4.6117Y-3.8342
X4.615Y-3.8692
X4.621Y-1.8061
X4.6247Y-3.8026
X4.6289Y-2.6841
X4.6328Y-3.6801
X4.6383Y-4.092
X4.6435Y-2.8907
X4.6521Y-1.7431
X4.658Y-3.7944
X4.6643Y-3.6644
X4.6717Y-1.7746
X4.684Y-3.8179
X4.6929Y-1.8052
X4.6958Y-3.6485
X4.7035Y-2.0005
X4.7155Y-3.8705
X4.7155Y-2.6841
X4.7159Y-3.8363
X4.7229Y-1.7392
X4.7246Y-3.7458
X4.7273Y-3.6325
X4.7432Y-1.7707
X4.7491Y-3.8269
X4.7588Y-3.6171
X4.7632Y-1.8022
X4.7706Y-4.4207
X4.7899Y-1.7313
X4.8113Y-1.7627
X4.8297Y-1.7943
X4.8515Y-1.9465
X4.8553Y-2.9144
X4.8685Y-3.1335
X4.869Y-1.7274
X4.8725Y-3.8555
X4.873Y-2.6841
X4.8848Y-2.8927
X4.9295Y-3.1345
X4.9328Y-1.9458
X4.9374Y-3.3455
X4.9438Y-1.7668
X4.9552Y-3.314
X4.9596Y-4.0778
X4.971Y-3.2825
X4.9793Y-1.751
X4.9871Y-3.251
X4.9995Y-4.4109
X5.0117Y-3.8691
X5.0147Y-1.7668
X5.0195Y-3.2825
X5.0226Y-2.6841
X5.0355Y-3.314
X5.0501Y-1.751
X5.0506Y-3.3455
X5.0584Y-2.8927
X5.0619Y-2.9951
X5.0777Y-3.2116
X5.0856Y-1.7668
X5.0934Y-3.1762
X5.0995Y-4.4109
X5.1092Y-1.9439
X5.1092Y-2.8612
X5.121Y-1.751
X5.1215Y-3.1345
X5.1446Y-1.8061
X5.1486Y-4.3967
X5.1564Y-2.9439
X5.1571Y-3.1409
X5.1995Y-4.4109
X5.2055Y-1.9485
X5.2076Y-2.6841
X5.2255Y-2.6365
X5.2255Y-3.8325
X5.2312Y-3.1752
X5.2352Y-2.314
X5.2352Y-2.3534
X5.2352Y-3.499
X5.2352Y-3.5463
X5.2355Y-3.3425
X5.2375Y-2.4385
X5.2391Y-1.9754
X5.2391Y-2.1408
X5.2391Y-3.626
X5.244Y-3.9282
X5.246Y-3.0778
X5.2509Y-4.3967
X5.2588Y-1.499
X5.3493Y-4.4046
X5.369Y-1.8927
X5.3838Y-3.0797
X5.3887Y-4.3809
X5.4515Y-2.3785
X5.4517Y-4.3967
X5.4625Y-3.5483
X5.4625Y-3.8593
X5.4635Y-2.6683
X5.5275Y-1.5305
X5.5423Y-4.3888
X5.5915Y-1.7425
X5.5915Y-1.8205
X5.5935Y-2.5425
X5.5955Y-2.6425
X5.6418Y-3.8402
X5.6455Y-1.2005
X5.6475Y-0.9465
X5.6486Y-4.3927
X5.6495Y-1.9945
X5.6789Y-3.638
X5.7255Y-3.8405
X5.7475Y-3.6385
X5.7824Y-1.8219
X5.7942Y-1.936
X5.7942Y-2.5423
X5.7942Y-2.6408
X5.7982Y-1.7353
X5.7995Y-4.4156
X5.8454Y-4.3927
X5.9478Y-4.3927
X6.058Y-4.3927
X6.1525Y-4.3927
X6.1815Y-1.3285
X6.1815Y-1.3679
X6.1815Y-1.4073
X6.1815Y-1.4466
X6.1815Y-1.486
X6.2315Y-1.3285
X6.2315Y-1.3679
X6.2315Y-1.4073
X6.2315Y-1.4466
X6.2315Y-1.486
X6.2815Y-1.3285
X6.2815Y-1.3679
X6.2815Y-1.4073
X6.2815Y-1.4466
X6.2815Y-1.486
X6.3315Y-1.3285
X6.3315Y-1.3679
X6.3315Y-1.4073
X6.3315Y-1.4466
X6.3315Y-1.486
X6.3815Y-1.3285
X6.3815Y-1.3679
X6.3815Y-1.4073
X6.3815Y-1.4466
X6.3815Y-1.486
X6.3995Y-4.3923
X6.4315Y-1.3285
X6.4315Y-1.3679
X6.4315Y-1.4073
X6.4315Y-1.4466
X6.4315Y-1.486
X6.4815Y-1.3285
X6.4815Y-1.3679
X6.4815Y-1.4073
X6.4815Y-1.4466
X6.4815Y-1.486
X6.5315Y-1.3285
X6.5315Y-1.3679
X6.5315Y-1.4073
X6.5315Y-1.4466
X6.5315Y-1.486
X6.5501Y-4.3927
X6.6486Y-4.3927
X6.7175Y-3.8285
X6.7509Y-4.3927
X6.8493Y-4.3927
X6.9995Y-4.3923
X7.0292Y-2.4843
X7.0494Y-1.6905
X7.1997Y-4.3967
X7.2982Y-4.3967
X7.3966Y-4.3967
X7.4235Y-2.959
X7.4435Y-2.1051
X7.499Y-4.3967
X7.5011Y-1.6589
X7.5395Y-3.8265
X7.5995Y-4.4025
X7.7982Y-4.3967
X7.9005Y-4.3967
X8.0675Y-2.1065
X8.1115Y-2.1065
X8.121Y-4.4203
X8.1634Y-2.1065
X8.1722Y-2.4715
X8.1995Y-4.4012
X8.1997Y-4.1053
X8.2588Y-4.0187
X8.2588Y-4.192
X8.3218Y-4.4242
X8.3612Y-4.4242
X8.3808Y-3.9872
X8.3808Y-4.2234
X8.4045Y-4.3297
X8.4068Y-4.4219
X8.432Y-3.9872
X8.432Y-4.0384
X8.432Y-4.1723
X8.432Y-4.2234
X8.4832Y-3.9872
X8.4832Y-4.0384
X8.4832Y-4.1723
X8.4832Y-4.2234
X8.4911Y-4.3061
X8.5005Y-1.3655
X8.5344Y-3.9872
X8.5344Y-4.0384
X8.5344Y-4.1723
X8.5344Y-4.2234
X8.5383Y-4.4006
X8.5659Y-4.2707
X8.6135Y-2.1925
X8.6171Y-4.2707
X8.6475Y-2.2245
X8.6682Y-4.2707
X8.6775Y-2.2565
X8.7076Y-2.2885
X8.7194Y-4.2707
X8.7706Y-4.2707
X8.7995Y-4.4191
X8.8218Y-4.2707
X8.8769Y-4.3061
X8.9005Y-4.4046
X8.9285Y-1.4451
X8.9285Y-1.4851
X8.9285Y-1.5251
X8.971Y-1.4451
X8.971Y-1.4851
X8.971Y-1.5251
X8.9753Y-4.4085
X9.0135Y-1.4451
X9.0135Y-1.4851
X9.0135Y-1.5251
X9.0535Y-1.4445
X9.0535Y-1.4851
X9.0535Y-1.5251
X9.0555Y-4.4025
X9.0995Y-1.3545
X9.1289Y-4.3219
X9.1643Y-4.3573
X9.1722Y-3.7116
X9.1997Y-4.3927
X9.247Y-4.0935
X9.247Y-4.2628
X9.2995Y-4.3973
X9.3021Y-4.1801
X9.3995Y-4.3973
T2
X3.0355Y-2.4261
X3.0355Y-2.5245
X3.3843Y-3.0574
X3.3843Y-3.3574
X3.3843Y-3.6574
X3.6843Y-3.0574
X3.6843Y-3.3574
X3.6843Y-3.6574
X4.3495Y-1.3525
X4.3495Y-1.4509
X8.3852Y-1.459
X8.3852Y-1.5574
X9.0129Y-3.0775
X9.1114Y-3.0775
X9.311Y-3.4237
X9.311Y-3.5221
X9.3155Y-1.4301
X9.3155Y-1.5285
X9.316Y-2.2161
X9.316Y-2.3145
X9.3184Y-1.8288
X9.3184Y-1.9272
X9.3195Y-1.0207
X9.3195Y-1.1191
X9.3211Y-2.5939
X9.3211Y-2.6923
T3
X3.4055Y-2.7045
X3.4055Y-2.8045
X3.5055Y-2.7045
X3.5055Y-2.8045
X3.6055Y-2.7045
X3.6055Y-2.8045
X3.7055Y-2.7045
X3.7055Y-2.8045
X3.8055Y-2.7045
X3.8055Y-2.8045
X4.0071Y-2.365
X4.0778Y-2.2942
X4.0778Y-2.4357
X4.1485Y-2.2235
X4.1485Y-2.365
X4.2192Y-2.2942
X4.6355Y-0.9805
X4.6355Y-1.0805
X4.7355Y-0.9805
X4.7355Y-1.0805
X4.8355Y-0.9805
X4.8355Y-1.0805
X4.9355Y-0.9805
X4.9355Y-1.0805
X5.0355Y-0.9805
X5.0355Y-1.0805
X5.1355Y-0.9805
X5.1355Y-1.0805
X5.2355Y-0.9805
X5.2355Y-1.0805
X5.3355Y-0.9805
X5.3355Y-1.0805
X5.4355Y-0.9805
X5.4355Y-1.0805
X5.5355Y-0.9805
X5.5355Y-1.0805
X8.3055Y-3.8535
X8.4055Y-3.8535
X8.5055Y-3.8535
X8.6055Y-3.8535
X8.7055Y-3.8535
X8.8055Y-3.8535
X8.9055Y-3.8535
T4
X5.9235Y-0.9315
X5.9235Y-1.1315
X5.9235Y-1.7365
X5.9235Y-1.9365
X5.9235Y-2.5415
X5.9235Y-2.7415
X5.9235Y-3.3465
X5.9235Y-3.5465
X5.9735Y-1.0315
X5.9735Y-1.2315
X5.9735Y-1.8365
X5.9735Y-2.0365
X5.9735Y-2.6415
X5.9735Y-2.8415
X5.9735Y-3.4465
X5.9735Y-3.6465
X6.0235Y-0.9315
X6.0235Y-1.1315
X6.0235Y-1.7365
X6.0235Y-1.9365
X6.0235Y-2.5415
X6.0235Y-2.7415
X6.0235Y-3.3465
X6.0235Y-3.5465
X6.0735Y-1.0315
X6.0735Y-1.2315
X6.0735Y-1.8365
X6.0735Y-2.0365
X6.0735Y-2.6415
X6.0735Y-2.8415
X6.0735Y-3.4465
X6.0735Y-3.6465
X6.1235Y-0.9315
X6.1235Y-1.1315
X6.1235Y-1.7365
X6.1235Y-1.9365
X6.1235Y-2.5415
X6.1235Y-2.7415
X6.1235Y-3.3465
X6.1235Y-3.5465
X6.1735Y-1.0315
X6.1735Y-1.2315
X6.1735Y-1.8365
X6.1735Y-2.0365
X6.1735Y-2.6415
X6.1735Y-2.8415
X6.1735Y-3.4465
X6.1735Y-3.6465
X6.2235Y-0.9315
X6.2235Y-1.1315
X6.2235Y-1.7365
X6.2235Y-1.9365
X6.2235Y-2.5415
X6.2235Y-2.7415
X6.2235Y-3.3465
X6.2235Y-3.5465
X6.2735Y-1.0315
X6.2735Y-1.2315
X6.2735Y-1.8365
X6.2735Y-2.0365
X6.2735Y-2.6415
X6.2735Y-2.8415
X6.2735Y-3.4465
X6.2735Y-3.6465
X6.3235Y-0.9315
X6.3235Y-1.1315
X6.3235Y-1.7365
X6.3235Y-1.9365
X6.3235Y-2.5415
X6.3235Y-2.7415
X6.3235Y-3.3465
X6.3235Y-3.5465
X6.3735Y-1.0315
X6.3735Y-1.2315
X6.3735Y-1.8365
X6.3735Y-2.0365
X6.3735Y-2.6415
X6.3735Y-2.8415
X6.3735Y-3.4465
X6.3735Y-3.6465
X6.4235Y-0.9315
X6.4235Y-1.1315
X6.4235Y-1.7365
X6.4235Y-1.9365
X6.4235Y-2.5415
X6.4235Y-2.7415
X6.4235Y-3.3465
X6.4235Y-3.5465
X6.5735Y-1.0315
X6.5735Y-1.2315
X6.5735Y-1.8365
X6.5735Y-2.0365
X6.5735Y-2.6415
X6.5735Y-2.8415
X6.5735Y-3.4465
X6.5735Y-3.6465
X6.6235Y-0.9315
X6.6235Y-1.1315
X6.6235Y-1.7365
X6.6235Y-1.9365
X6.6235Y-2.5415
X6.6235Y-2.7415
X6.6235Y-3.3465
X6.6235Y-3.5465
X6.6735Y-1.0315
X6.6735Y-1.2315
X6.6735Y-1.8365
X6.6735Y-2.0365
X6.6735Y-2.6415
X6.6735Y-2.8415
X6.6735Y-3.4465
X6.6735Y-3.6465
X6.7235Y-0.9315
X6.7235Y-1.1315
X6.7235Y-1.7365
X6.7235Y-1.9365
X6.7235Y-2.5415
X6.7235Y-2.7415
X6.7235Y-3.3465
X6.7235Y-3.5465
X6.7735Y-1.0315
X6.7735Y-1.2315
X6.7735Y-1.8365
X6.7735Y-2.0365
X6.7735Y-2.6415
X6.7735Y-2.8415
X6.7735Y-3.4465
X6.7735Y-3.6465
X6.8235Y-0.9315
X6.8235Y-1.1315
X6.8235Y-1.7365
X6.8235Y-1.9365
X6.8235Y-2.5415
X6.8235Y-2.7415
X6.8235Y-3.3465
X6.8235Y-3.5465
X6.8735Y-1.0315
X6.8735Y-1.2315
X6.8735Y-1.8365
X6.8735Y-2.0365
X6.8735Y-2.6415
X6.8735Y-2.8415
X6.8735Y-3.4465
X6.8735Y-3.6465
X6.9235Y-0.9315
X6.9235Y-1.1315
X6.9235Y-1.7365
X6.9235Y-1.9365
X6.9235Y-2.5415
X6.9235Y-2.7415
X6.9235Y-3.3465
X6.9235Y-3.5465
X6.9735Y-1.0315
X6.9735Y-1.2315
X6.9735Y-1.8365
X6.9735Y-2.0365
X6.9735Y-2.6415
X6.9735Y-2.8415
X6.9735Y-3.4465
X6.9735Y-3.6465
X7.0235Y-0.9315
X7.0235Y-1.1315
X7.0235Y-1.7365
X7.0235Y-1.9365
X7.0235Y-2.5415
X7.0235Y-2.7415
X7.0235Y-3.3465
X7.0235Y-3.5465
X7.0735Y-1.0315
X7.0735Y-1.2315
X7.0735Y-1.8365
X7.0735Y-2.0365
X7.0735Y-2.6415
X7.0735Y-2.8415
X7.0735Y-3.4465
X7.0735Y-3.6465
X7.1235Y-0.9315
X7.1235Y-1.1315
X7.1235Y-1.7365
X7.1235Y-1.9365
X7.1235Y-2.5415
X7.1235Y-2.7415
X7.1235Y-3.3465
X7.1235Y-3.5465
X7.1735Y-1.0315
X7.1735Y-1.2315
X7.1735Y-1.8365
X7.1735Y-2.0365
X7.1735Y-2.6415
X7.1735Y-2.8415
X7.1735Y-3.4465
X7.1735Y-3.6465
X7.2235Y-0.9315
X7.2235Y-1.1315
X7.2235Y-1.7365
X7.2235Y-1.9365
X7.2235Y-2.5415
X7.2235Y-2.7415
X7.2235Y-3.3465
X7.2235Y-3.5465
X7.2735Y-1.0315
X7.2735Y-1.2315
X7.2735Y-1.8365
X7.2735Y-2.0365
X7.2735Y-2.6415
X7.2735Y-2.8415
X7.2735Y-3.4465
X7.2735Y-3.6465
X7.3235Y-0.9315
X7.3235Y-1.1315
X7.3235Y-1.7365
X7.3235Y-1.9365
X7.3235Y-2.5415
X7.3235Y-2.7415
X7.3235Y-3.3465
X7.3235Y-3.5465
X7.3735Y-1.0315
X7.3735Y-1.2315
X7.3735Y-1.8365
X7.3735Y-2.0365
X7.3735Y-2.6415
X7.3735Y-2.8415
X7.3735Y-3.4465
X7.3735Y-3.6465
X7.4235Y-0.9315
X7.4235Y-1.1315
X7.4235Y-1.7365
X7.4235Y-1.9365
X7.4235Y-2.5415
X7.4235Y-2.7415
X7.4235Y-3.3465
X7.4235Y-3.5465
X7.4735Y-1.0315
X7.4735Y-1.2315
X7.4735Y-1.8365
X7.4735Y-2.0365
X7.4735Y-2.6415
X7.4735Y-2.8415
X7.4735Y-3.4465
X7.4735Y-3.6465
X7.5235Y-0.9315
X7.5235Y-1.1315
X7.5235Y-1.7365
X7.5235Y-1.9365
X7.5235Y-2.5415
X7.5235Y-2.7415
X7.5235Y-3.3465
X7.5235Y-3.5465
X7.5735Y-1.0315
X7.5735Y-1.2315
X7.5735Y-1.8365
X7.5735Y-2.0365
X7.5735Y-2.6415
X7.5735Y-2.8415
X7.5735Y-3.4465
X7.5735Y-3.6465
X7.6235Y-0.9315
X7.6235Y-1.1315
X7.6235Y-1.7365
X7.6235Y-1.9365
X7.6235Y-2.5415
X7.6235Y-2.7415
X7.6235Y-3.3465
X7.6235Y-3.5465
X7.6735Y-1.0315
X7.6735Y-1.2315
X7.6735Y-1.8365
X7.6735Y-2.0365
X7.6735Y-2.6415
X7.6735Y-2.8415
X7.6735Y-3.4465
X7.6735Y-3.6465
X7.7235Y-0.9315
X7.7235Y-1.1315
X7.7235Y-1.7365
X7.7235Y-1.9365
X7.7235Y-2.5415
X7.7235Y-2.7415
X7.7235Y-3.3465
X7.7235Y-3.5465
X7.7735Y-1.0315
X7.7735Y-1.2315
X7.7735Y-1.8365
X7.7735Y-2.0365
X7.7735Y-2.6415
X7.7735Y-2.8415
X7.7735Y-3.4465
X7.7735Y-3.6465
X7.8235Y-0.9315
X7.8235Y-1.1315
X7.8235Y-1.7365
X7.8235Y-1.9365
X7.8235Y-2.5415
X7.8235Y-2.7415
X7.8235Y-3.3465
X7.8235Y-3.5465
X7.8735Y-1.0315
X7.8735Y-1.2315
X7.8735Y-1.8365
X7.8735Y-2.0365
X7.8735Y-2.6415
X7.8735Y-2.8415
X7.8735Y-3.4465
X7.8735Y-3.6465
X7.9235Y-0.9315
X7.9235Y-1.1315
X7.9235Y-1.7365
X7.9235Y-1.9365
X7.9235Y-2.5415
X7.9235Y-2.7415
X7.9235Y-3.3465
X7.9235Y-3.5465
X7.9735Y-1.0315
X7.9735Y-1.2315
X7.9735Y-1.8365
X7.9735Y-2.0365
X7.9735Y-2.6415
X7.9735Y-2.8415
X7.9735Y-3.4465
X7.9735Y-3.6465
X8.0235Y-0.9315
X8.0235Y-1.1315
X8.0235Y-1.7365
X8.0235Y-1.9365
X8.0235Y-2.5415
X8.0235Y-2.7415
X8.0235Y-3.3465
X8.0235Y-3.5465
X8.0735Y-1.0315
X8.0735Y-1.2315
X8.0735Y-1.8365
X8.0735Y-2.0365
X8.0735Y-2.6415
X8.0735Y-2.8415
X8.0735Y-3.4465
X8.0735Y-3.6465
X8.1235Y-0.9315
X8.1235Y-1.1315
X8.1235Y-1.7365
X8.1235Y-1.9365
X8.1235Y-2.5415
X8.1235Y-2.7415
X8.1235Y-3.3465
X8.1235Y-3.5465
X8.1735Y-1.0315
X8.1735Y-1.2315
X8.1735Y-1.8365
X8.1735Y-2.0365
X8.1735Y-2.6415
X8.1735Y-2.8415
X8.1735Y-3.4465
X8.1735Y-3.6465
X8.2235Y-0.9315
X8.2235Y-1.1315
X8.2235Y-1.7365
X8.2235Y-1.9365
X8.2235Y-2.5415
X8.2235Y-2.7415
X8.2235Y-3.3465
X8.2235Y-3.5465
X8.2735Y-1.0315
X8.2735Y-1.2315
X8.2735Y-1.8365
X8.2735Y-2.0365
X8.2735Y-2.6415
X8.2735Y-2.8415
X8.2735Y-3.4465
X8.2735Y-3.6465
X8.3235Y-0.9315
X8.3235Y-1.1315
X8.3235Y-1.7365
X8.3235Y-1.9365
X8.3235Y-2.5415
X8.3235Y-2.7415
X8.3235Y-3.3465
X8.3235Y-3.5465
X8.3735Y-1.0315
X8.3735Y-1.2315
X8.3735Y-1.8365
X8.3735Y-2.0365
X8.3735Y-2.6415
X8.3735Y-2.8415
X8.3735Y-3.4465
X8.3735Y-3.6465
X8.4235Y-0.9315
X8.4235Y-1.1315
X8.4235Y-1.7365
X8.4235Y-1.9365
X8.4235Y-2.5415
X8.4235Y-2.7415
X8.4235Y-3.3465
X8.4235Y-3.5465
X8.4735Y-1.0315
X8.4735Y-1.2315
X8.4735Y-1.8365
X8.4735Y-2.0365
X8.4735Y-2.6415
X8.4735Y-2.8415
X8.4735Y-3.4465
X8.4735Y-3.6465
X8.5235Y-0.9315
X8.5235Y-1.1315
X8.5235Y-1.7365
X8.5235Y-1.9365
X8.5235Y-2.5415
X8.5235Y-2.7415
X8.5235Y-3.3465
X8.5235Y-3.5465
X8.5735Y-1.0315
X8.5735Y-1.2315
X8.5735Y-1.8365
X8.5735Y-2.0365
X8.5735Y-2.6415
X8.5735Y-2.8415
X8.5735Y-3.4465
X8.5735Y-3.6465
X8.6235Y-0.9315
X8.6235Y-1.1315
X8.6235Y-1.7365
X8.6235Y-1.9365
X8.6235Y-2.5415
X8.6235Y-2.7415
X8.6235Y-3.3465
X8.6235Y-3.5465
X8.6735Y-1.0315
X8.6735Y-1.2315
X8.6735Y-1.8365
X8.6735Y-2.0365
X8.6735Y-2.6415
X8.6735Y-2.8415
X8.6735Y-3.4465
X8.6735Y-3.6465
X8.7235Y-0.9315
X8.7235Y-1.1315
X8.7235Y-1.7365
X8.7235Y-1.9365
X8.7235Y-2.5415
X8.7235Y-2.7415
X8.7235Y-3.3465
X8.7235Y-3.5465
X8.7735Y-1.0315
X8.7735Y-1.2315
X8.7735Y-1.8365
X8.7735Y-2.0365
X8.7735Y-2.6415
X8.7735Y-2.8415
X8.7735Y-3.4465
X8.7735Y-3.6465
X8.8235Y-0.9315
X8.8235Y-1.1315
X8.8235Y-1.7365
X8.8235Y-1.9365
X8.8235Y-2.5415
X8.8235Y-2.7415
X8.8235Y-3.3465
X8.8235Y-3.5465
X8.8735Y-1.0315
X8.8735Y-1.2315
X8.8735Y-1.8365
X8.8735Y-2.0365
X8.8735Y-2.6415
X8.8735Y-2.8415
X8.8735Y-3.4465
X8.8735Y-3.6465
X8.9235Y-0.9315
X8.9235Y-1.1315
X8.9235Y-1.7365
X8.9235Y-1.9365
X8.9235Y-2.5415
X8.9235Y-2.7415
X8.9235Y-3.3465
X8.9235Y-3.5465
X8.9735Y-1.0315
X8.9735Y-1.2315
X8.9735Y-1.8365
X8.9735Y-2.0365
X8.9735Y-2.6415
X8.9735Y-2.8415
X8.9735Y-3.4465
X8.9735Y-3.6465
T5
X3.1097Y-1.6998
X3.1097Y-1.8248
X3.1097Y-1.9498
X3.1097Y-2.0748
X3.7597Y-1.6998
X3.7597Y-2.0748
X3.8597Y-1.6998
X3.8597Y-2.0748
T6
X3.2018Y-1.3378
X3.4018Y-1.3378
X3.6014Y-1.3377
X3.8014Y-1.3377
T0
M30
