%TF.GenerationSoftware,KiCad,Pcbnew,7.0.6-0*%
%TF.CreationDate,2023-08-26T23:16:55+02:00*%
%TF.ProjectId,Prometheus,50726f6d-6574-4686-9575-732e6b696361,rev?*%
%TF.SameCoordinates,Original*%
%TF.FileFunction,Paste,Top*%
%TF.FilePolarity,Positive*%
%FSLAX46Y46*%
G04 Gerber Fmt 4.6, Leading zero omitted, Abs format (unit mm)*
G04 Created by KiCad (PCBNEW 7.0.6-0) date 2023-08-26 23:16:55*
%MOMM*%
%LPD*%
G01*
G04 APERTURE LIST*
G04 Aperture macros list*
%AMRoundRect*
0 Rectangle with rounded corners*
0 $1 Rounding radius*
0 $2 $3 $4 $5 $6 $7 $8 $9 X,Y pos of 4 corners*
0 Add a 4 corners polygon primitive as box body*
4,1,4,$2,$3,$4,$5,$6,$7,$8,$9,$2,$3,0*
0 Add four circle primitives for the rounded corners*
1,1,$1+$1,$2,$3*
1,1,$1+$1,$4,$5*
1,1,$1+$1,$6,$7*
1,1,$1+$1,$8,$9*
0 Add four rect primitives between the rounded corners*
20,1,$1+$1,$2,$3,$4,$5,0*
20,1,$1+$1,$4,$5,$6,$7,0*
20,1,$1+$1,$6,$7,$8,$9,0*
20,1,$1+$1,$8,$9,$2,$3,0*%
G04 Aperture macros list end*
%ADD10RoundRect,0.250000X0.350000X0.450000X-0.350000X0.450000X-0.350000X-0.450000X0.350000X-0.450000X0*%
%ADD11RoundRect,0.250000X-0.350000X-0.450000X0.350000X-0.450000X0.350000X0.450000X-0.350000X0.450000X0*%
%ADD12RoundRect,0.250000X-0.450000X0.350000X-0.450000X-0.350000X0.450000X-0.350000X0.450000X0.350000X0*%
%ADD13RoundRect,0.155000X0.155000X-0.212500X0.155000X0.212500X-0.155000X0.212500X-0.155000X-0.212500X0*%
%ADD14RoundRect,0.250000X0.850000X0.350000X-0.850000X0.350000X-0.850000X-0.350000X0.850000X-0.350000X0*%
%ADD15RoundRect,0.250000X1.275000X1.125000X-1.275000X1.125000X-1.275000X-1.125000X1.275000X-1.125000X0*%
%ADD16RoundRect,0.237500X0.237500X-0.287500X0.237500X0.287500X-0.237500X0.287500X-0.237500X-0.287500X0*%
%ADD17RoundRect,0.160000X0.197500X0.160000X-0.197500X0.160000X-0.197500X-0.160000X0.197500X-0.160000X0*%
%ADD18RoundRect,0.155000X-0.212500X-0.155000X0.212500X-0.155000X0.212500X0.155000X-0.212500X0.155000X0*%
%ADD19RoundRect,0.155000X0.212500X0.155000X-0.212500X0.155000X-0.212500X-0.155000X0.212500X-0.155000X0*%
%ADD20RoundRect,0.155000X-0.155000X0.212500X-0.155000X-0.212500X0.155000X-0.212500X0.155000X0.212500X0*%
%ADD21RoundRect,0.155000X-0.040659X-0.259862X0.259862X0.040659X0.040659X0.259862X-0.259862X-0.040659X0*%
%ADD22RoundRect,0.160000X0.160000X-0.197500X0.160000X0.197500X-0.160000X0.197500X-0.160000X-0.197500X0*%
%ADD23RoundRect,0.160000X0.026517X0.252791X-0.252791X-0.026517X-0.026517X-0.252791X0.252791X0.026517X0*%
%ADD24RoundRect,0.155000X-0.259862X0.040659X0.040659X-0.259862X0.259862X-0.040659X-0.040659X0.259862X0*%
%ADD25RoundRect,0.250000X-0.400000X-0.625000X0.400000X-0.625000X0.400000X0.625000X-0.400000X0.625000X0*%
%ADD26R,0.700000X0.640000*%
%ADD27R,0.700000X0.500000*%
%ADD28R,1.200000X1.500000*%
%ADD29RoundRect,0.155000X0.259862X-0.040659X-0.040659X0.259862X-0.259862X0.040659X0.040659X-0.259862X0*%
%ADD30RoundRect,0.250000X0.450000X-0.350000X0.450000X0.350000X-0.450000X0.350000X-0.450000X-0.350000X0*%
%ADD31RoundRect,0.250000X0.650000X-0.412500X0.650000X0.412500X-0.650000X0.412500X-0.650000X-0.412500X0*%
%ADD32RoundRect,0.160000X-0.197500X-0.160000X0.197500X-0.160000X0.197500X0.160000X-0.197500X0.160000X0*%
%ADD33RoundRect,0.250000X-0.412500X-1.100000X0.412500X-1.100000X0.412500X1.100000X-0.412500X1.100000X0*%
%ADD34RoundRect,0.150000X0.150000X-0.825000X0.150000X0.825000X-0.150000X0.825000X-0.150000X-0.825000X0*%
%ADD35RoundRect,0.075000X-0.662500X-0.075000X0.662500X-0.075000X0.662500X0.075000X-0.662500X0.075000X0*%
%ADD36RoundRect,0.075000X-0.075000X-0.662500X0.075000X-0.662500X0.075000X0.662500X-0.075000X0.662500X0*%
%ADD37RoundRect,0.250000X0.412500X1.100000X-0.412500X1.100000X-0.412500X-1.100000X0.412500X-1.100000X0*%
G04 APERTURE END LIST*
D10*
%TO.C,R46*%
X203526400Y-34785800D03*
X201526400Y-34785800D03*
%TD*%
D11*
%TO.C,R45*%
X205412600Y-40551600D03*
X207412600Y-40551600D03*
%TD*%
D10*
%TO.C,R44*%
X204212200Y-60973200D03*
X202212200Y-60973200D03*
%TD*%
%TO.C,R43*%
X206498200Y-81293200D03*
X204498200Y-81293200D03*
%TD*%
D12*
%TO.C,R11*%
X186016400Y-95228400D03*
X186016400Y-97228400D03*
%TD*%
%TO.C,R21*%
X223178400Y-33252400D03*
X223178400Y-35252400D03*
%TD*%
D13*
%TO.C,C7*%
X116166400Y-46199100D03*
X116166400Y-45064100D03*
%TD*%
D14*
%TO.C,VR100*%
X228230600Y-106586600D03*
D15*
X223605600Y-105831600D03*
X223605600Y-102781600D03*
X220255600Y-105831600D03*
X220255600Y-102781600D03*
D14*
X228230600Y-102026600D03*
%TD*%
D16*
%TO.C,LED6*%
X102970400Y-50418200D03*
X102970400Y-48668200D03*
%TD*%
D17*
%TO.C,R102*%
X227863500Y-109385600D03*
X226668500Y-109385600D03*
%TD*%
D11*
%TO.C,R201*%
X95100400Y-98920800D03*
X97100400Y-98920800D03*
%TD*%
D12*
%TO.C,R10*%
X189981600Y-95228400D03*
X189981600Y-97228400D03*
%TD*%
D18*
%TO.C,C207*%
X136477700Y-98006400D03*
X137612700Y-98006400D03*
%TD*%
D19*
%TO.C,C206*%
X112669900Y-99733600D03*
X111534900Y-99733600D03*
%TD*%
D20*
%TO.C,C6*%
X114744000Y-71988100D03*
X114744000Y-73123100D03*
%TD*%
D21*
%TO.C,C4*%
X136593117Y-61577683D03*
X137395683Y-60775117D03*
%TD*%
D12*
%TO.C,R15*%
X180072800Y-95228400D03*
X180072800Y-97228400D03*
%TD*%
D22*
%TO.C,R36*%
X104584000Y-47346700D03*
X104584000Y-46151700D03*
%TD*%
D17*
%TO.C,R1*%
X111722600Y-77026000D03*
X110527600Y-77026000D03*
%TD*%
D12*
%TO.C,R8*%
X143301600Y-94407600D03*
X143301600Y-96407600D03*
%TD*%
D20*
%TO.C,C9*%
X117487200Y-71226100D03*
X117487200Y-72361100D03*
%TD*%
D16*
%TO.C,LED4*%
X106216800Y-50418200D03*
X106216800Y-48668200D03*
%TD*%
D20*
%TO.C,C1*%
X123989600Y-71175300D03*
X123989600Y-72310300D03*
%TD*%
D12*
%TO.C,R28*%
X229122000Y-33252400D03*
X229122000Y-35252400D03*
%TD*%
D23*
%TO.C,R40*%
X101704496Y-63751104D03*
X100859504Y-64596096D03*
%TD*%
D24*
%TO.C,C209*%
X124299517Y-101923117D03*
X125102083Y-102725683D03*
%TD*%
D25*
%TO.C,R300*%
X91019200Y-57112400D03*
X94119200Y-57112400D03*
%TD*%
D13*
%TO.C,C204*%
X116420400Y-76374300D03*
X116420400Y-75239300D03*
%TD*%
D12*
%TO.C,R31*%
X227140800Y-33252400D03*
X227140800Y-35252400D03*
%TD*%
D22*
%TO.C,R35*%
X106209600Y-47346700D03*
X106209600Y-46151700D03*
%TD*%
D26*
%TO.C,RA202*%
X82457600Y-71539600D03*
D27*
X82457600Y-72409600D03*
X82457600Y-73209600D03*
D26*
X82457600Y-74079600D03*
X83857600Y-74079600D03*
D27*
X83857600Y-73209600D03*
X83857600Y-72409600D03*
D26*
X83857600Y-71539600D03*
%TD*%
D12*
%TO.C,R41*%
X178091600Y-95228400D03*
X178091600Y-97228400D03*
%TD*%
D18*
%TO.C,C203*%
X134445700Y-78245200D03*
X135580700Y-78245200D03*
%TD*%
D22*
%TO.C,R33*%
X109460800Y-47346700D03*
X109460800Y-46151700D03*
%TD*%
D12*
%TO.C,R14*%
X182054000Y-95228400D03*
X182054000Y-97228400D03*
%TD*%
D28*
%TO.C,Q203*%
X88626800Y-75908400D03*
X88626800Y-80008400D03*
X91426800Y-80008400D03*
X91426800Y-75908400D03*
%TD*%
D29*
%TO.C,C202*%
X110832400Y-83833200D03*
X110029834Y-83030634D03*
%TD*%
D22*
%TO.C,R34*%
X107835200Y-47346700D03*
X107835200Y-46151700D03*
%TD*%
D11*
%TO.C,R3*%
X143512800Y-67120000D03*
X145512800Y-67120000D03*
%TD*%
%TO.C,R210*%
X80470000Y-99276400D03*
X82470000Y-99276400D03*
%TD*%
D16*
%TO.C,LED5*%
X104593600Y-50418200D03*
X104593600Y-48668200D03*
%TD*%
D13*
%TO.C,C201*%
X123380000Y-76374300D03*
X123380000Y-75239300D03*
%TD*%
D18*
%TO.C,C3*%
X134039300Y-48070000D03*
X135174300Y-48070000D03*
%TD*%
D11*
%TO.C,R4*%
X143309600Y-49187600D03*
X145309600Y-49187600D03*
%TD*%
D12*
%TO.C,R18*%
X217234800Y-33252400D03*
X217234800Y-35252400D03*
%TD*%
D16*
%TO.C,LED2*%
X109463200Y-50418200D03*
X109463200Y-48668200D03*
%TD*%
D19*
%TO.C,C230*%
X92349900Y-73978000D03*
X91214900Y-73978000D03*
%TD*%
D10*
%TO.C,R7*%
X145512800Y-25514800D03*
X143512800Y-25514800D03*
%TD*%
D18*
%TO.C,C5*%
X136376100Y-67729600D03*
X137511100Y-67729600D03*
%TD*%
D12*
%TO.C,R16*%
X172148000Y-95228400D03*
X172148000Y-97228400D03*
%TD*%
D11*
%TO.C,R23*%
X207317600Y-75705200D03*
X209317600Y-75705200D03*
%TD*%
D20*
%TO.C,C208*%
X117436400Y-101655300D03*
X117436400Y-102790300D03*
%TD*%
D11*
%TO.C,R209*%
X80470000Y-97142800D03*
X82470000Y-97142800D03*
%TD*%
D22*
%TO.C,R37*%
X103009200Y-47346700D03*
X103009200Y-46151700D03*
%TD*%
D23*
%TO.C,R39*%
X100806192Y-62871408D03*
X99961200Y-63716400D03*
%TD*%
D30*
%TO.C,R26*%
X141769600Y-38999500D03*
X141769600Y-36999500D03*
%TD*%
%TO.C,R2*%
X145435200Y-96407600D03*
X145435200Y-94407600D03*
%TD*%
D11*
%TO.C,R22*%
X205946000Y-95974400D03*
X207946000Y-95974400D03*
%TD*%
D12*
%TO.C,R30*%
X231096483Y-33252400D03*
X231096483Y-35252400D03*
%TD*%
D16*
%TO.C,LED1*%
X111086400Y-50418200D03*
X111086400Y-48668200D03*
%TD*%
D12*
%TO.C,R20*%
X219216000Y-33252400D03*
X219216000Y-35252400D03*
%TD*%
D31*
%TO.C,C309*%
X74307200Y-38799800D03*
X74307200Y-35674800D03*
%TD*%
D23*
%TO.C,R38*%
X99875696Y-61973104D03*
X99030704Y-62818096D03*
%TD*%
D12*
%TO.C,R17*%
X174129200Y-95228400D03*
X174129200Y-97228400D03*
%TD*%
D10*
%TO.C,R9*%
X145512800Y-64580000D03*
X143512800Y-64580000D03*
%TD*%
D32*
%TO.C,R101*%
X226668500Y-108318800D03*
X227863500Y-108318800D03*
%TD*%
D31*
%TO.C,C310*%
X105955600Y-32360500D03*
X105955600Y-29235500D03*
%TD*%
D13*
%TO.C,C10*%
X113728000Y-47265900D03*
X113728000Y-46130900D03*
%TD*%
D11*
%TO.C,R24*%
X207536800Y-55283600D03*
X209536800Y-55283600D03*
%TD*%
D10*
%TO.C,R6*%
X145360400Y-44056800D03*
X143360400Y-44056800D03*
%TD*%
D33*
%TO.C,C12*%
X231811800Y-106185200D03*
X234936800Y-106185200D03*
%TD*%
D21*
%TO.C,C205*%
X136999517Y-91803683D03*
X137802083Y-91001117D03*
%TD*%
D19*
%TO.C,C2*%
X111044300Y-53810400D03*
X109909300Y-53810400D03*
%TD*%
D12*
%TO.C,R42*%
X176110400Y-95228400D03*
X176110400Y-97228400D03*
%TD*%
D13*
%TO.C,C8*%
X123684800Y-46249900D03*
X123684800Y-45114900D03*
%TD*%
D22*
%TO.C,R32*%
X111086400Y-47346700D03*
X111086400Y-46151700D03*
%TD*%
D12*
%TO.C,R29*%
X225159600Y-33252400D03*
X225159600Y-35252400D03*
%TD*%
D34*
%TO.C,IC220*%
X89953600Y-107288600D03*
X91223600Y-107288600D03*
X92493600Y-107288600D03*
X93763600Y-107288600D03*
X93763600Y-102338600D03*
X92493600Y-102338600D03*
X91223600Y-102338600D03*
X89953600Y-102338600D03*
%TD*%
D35*
%TO.C,IC201H1*%
X113022300Y-50038800D03*
X113022300Y-50538800D03*
X113022300Y-51038800D03*
X113022300Y-51538800D03*
X113022300Y-52038800D03*
X113022300Y-52538800D03*
X113022300Y-53038800D03*
X113022300Y-53538800D03*
X113022300Y-54038800D03*
X113022300Y-54538800D03*
X113022300Y-55038800D03*
X113022300Y-55538800D03*
X113022300Y-56038800D03*
X113022300Y-56538800D03*
X113022300Y-57038800D03*
X113022300Y-57538800D03*
X113022300Y-58038800D03*
X113022300Y-58538800D03*
X113022300Y-59038800D03*
X113022300Y-59538800D03*
X113022300Y-60038800D03*
X113022300Y-60538800D03*
X113022300Y-61038800D03*
X113022300Y-61538800D03*
X113022300Y-62038800D03*
X113022300Y-62538800D03*
X113022300Y-63038800D03*
X113022300Y-63538800D03*
X113022300Y-64038800D03*
X113022300Y-64538800D03*
X113022300Y-65038800D03*
X113022300Y-65538800D03*
X113022300Y-66038800D03*
X113022300Y-66538800D03*
X113022300Y-67038800D03*
X113022300Y-67538800D03*
D36*
X114934800Y-69451300D03*
X115434800Y-69451300D03*
X115934800Y-69451300D03*
X116434800Y-69451300D03*
X116934800Y-69451300D03*
X117434800Y-69451300D03*
X117934800Y-69451300D03*
X118434800Y-69451300D03*
X118934800Y-69451300D03*
X119434800Y-69451300D03*
X119934800Y-69451300D03*
X120434800Y-69451300D03*
X120934800Y-69451300D03*
X121434800Y-69451300D03*
X121934800Y-69451300D03*
X122434800Y-69451300D03*
X122934800Y-69451300D03*
X123434800Y-69451300D03*
X123934800Y-69451300D03*
X124434800Y-69451300D03*
X124934800Y-69451300D03*
X125434800Y-69451300D03*
X125934800Y-69451300D03*
X126434800Y-69451300D03*
X126934800Y-69451300D03*
X127434800Y-69451300D03*
X127934800Y-69451300D03*
X128434800Y-69451300D03*
X128934800Y-69451300D03*
X129434800Y-69451300D03*
X129934800Y-69451300D03*
X130434800Y-69451300D03*
X130934800Y-69451300D03*
X131434800Y-69451300D03*
X131934800Y-69451300D03*
X132434800Y-69451300D03*
D35*
X134347300Y-67538800D03*
X134347300Y-67038800D03*
X134347300Y-66538800D03*
X134347300Y-66038800D03*
X134347300Y-65538800D03*
X134347300Y-65038800D03*
X134347300Y-64538800D03*
X134347300Y-64038800D03*
X134347300Y-63538800D03*
X134347300Y-63038800D03*
X134347300Y-62538800D03*
X134347300Y-62038800D03*
X134347300Y-61538800D03*
X134347300Y-61038800D03*
X134347300Y-60538800D03*
X134347300Y-60038800D03*
X134347300Y-59538800D03*
X134347300Y-59038800D03*
X134347300Y-58538800D03*
X134347300Y-58038800D03*
X134347300Y-57538800D03*
X134347300Y-57038800D03*
X134347300Y-56538800D03*
X134347300Y-56038800D03*
X134347300Y-55538800D03*
X134347300Y-55038800D03*
X134347300Y-54538800D03*
X134347300Y-54038800D03*
X134347300Y-53538800D03*
X134347300Y-53038800D03*
X134347300Y-52538800D03*
X134347300Y-52038800D03*
X134347300Y-51538800D03*
X134347300Y-51038800D03*
X134347300Y-50538800D03*
X134347300Y-50038800D03*
D36*
X132434800Y-48126300D03*
X131934800Y-48126300D03*
X131434800Y-48126300D03*
X130934800Y-48126300D03*
X130434800Y-48126300D03*
X129934800Y-48126300D03*
X129434800Y-48126300D03*
X128934800Y-48126300D03*
X128434800Y-48126300D03*
X127934800Y-48126300D03*
X127434800Y-48126300D03*
X126934800Y-48126300D03*
X126434800Y-48126300D03*
X125934800Y-48126300D03*
X125434800Y-48126300D03*
X124934800Y-48126300D03*
X124434800Y-48126300D03*
X123934800Y-48126300D03*
X123434800Y-48126300D03*
X122934800Y-48126300D03*
X122434800Y-48126300D03*
X121934800Y-48126300D03*
X121434800Y-48126300D03*
X120934800Y-48126300D03*
X120434800Y-48126300D03*
X119934800Y-48126300D03*
X119434800Y-48126300D03*
X118934800Y-48126300D03*
X118434800Y-48126300D03*
X117934800Y-48126300D03*
X117434800Y-48126300D03*
X116934800Y-48126300D03*
X116434800Y-48126300D03*
X115934800Y-48126300D03*
X115434800Y-48126300D03*
X114934800Y-48126300D03*
%TD*%
D12*
%TO.C,R12*%
X187997600Y-95228400D03*
X187997600Y-97228400D03*
%TD*%
%TO.C,R13*%
X184035200Y-95228400D03*
X184035200Y-97228400D03*
%TD*%
D11*
%TO.C,R25*%
X207317600Y-34811200D03*
X209317600Y-34811200D03*
%TD*%
%TO.C,R5*%
X143462000Y-28664400D03*
X145462000Y-28664400D03*
%TD*%
D37*
%TO.C,C11*%
X212877300Y-104254800D03*
X209752300Y-104254800D03*
%TD*%
D16*
%TO.C,LED3*%
X107840000Y-50418200D03*
X107840000Y-48668200D03*
%TD*%
D19*
%TO.C,C200*%
X111653900Y-78550000D03*
X110518900Y-78550000D03*
%TD*%
D35*
%TO.C,IC200L1*%
X113027800Y-80247200D03*
X113027800Y-80747200D03*
X113027800Y-81247200D03*
X113027800Y-81747200D03*
X113027800Y-82247200D03*
X113027800Y-82747200D03*
X113027800Y-83247200D03*
X113027800Y-83747200D03*
X113027800Y-84247200D03*
X113027800Y-84747200D03*
X113027800Y-85247200D03*
X113027800Y-85747200D03*
X113027800Y-86247200D03*
X113027800Y-86747200D03*
X113027800Y-87247200D03*
X113027800Y-87747200D03*
X113027800Y-88247200D03*
X113027800Y-88747200D03*
X113027800Y-89247200D03*
X113027800Y-89747200D03*
X113027800Y-90247200D03*
X113027800Y-90747200D03*
X113027800Y-91247200D03*
X113027800Y-91747200D03*
X113027800Y-92247200D03*
X113027800Y-92747200D03*
X113027800Y-93247200D03*
X113027800Y-93747200D03*
X113027800Y-94247200D03*
X113027800Y-94747200D03*
X113027800Y-95247200D03*
X113027800Y-95747200D03*
X113027800Y-96247200D03*
X113027800Y-96747200D03*
X113027800Y-97247200D03*
X113027800Y-97747200D03*
D36*
X114940300Y-99659700D03*
X115440300Y-99659700D03*
X115940300Y-99659700D03*
X116440300Y-99659700D03*
X116940300Y-99659700D03*
X117440300Y-99659700D03*
X117940300Y-99659700D03*
X118440300Y-99659700D03*
X118940300Y-99659700D03*
X119440300Y-99659700D03*
X119940300Y-99659700D03*
X120440300Y-99659700D03*
X120940300Y-99659700D03*
X121440300Y-99659700D03*
X121940300Y-99659700D03*
X122440300Y-99659700D03*
X122940300Y-99659700D03*
X123440300Y-99659700D03*
X123940300Y-99659700D03*
X124440300Y-99659700D03*
X124940300Y-99659700D03*
X125440300Y-99659700D03*
X125940300Y-99659700D03*
X126440300Y-99659700D03*
X126940300Y-99659700D03*
X127440300Y-99659700D03*
X127940300Y-99659700D03*
X128440300Y-99659700D03*
X128940300Y-99659700D03*
X129440300Y-99659700D03*
X129940300Y-99659700D03*
X130440300Y-99659700D03*
X130940300Y-99659700D03*
X131440300Y-99659700D03*
X131940300Y-99659700D03*
X132440300Y-99659700D03*
D35*
X134352800Y-97747200D03*
X134352800Y-97247200D03*
X134352800Y-96747200D03*
X134352800Y-96247200D03*
X134352800Y-95747200D03*
X134352800Y-95247200D03*
X134352800Y-94747200D03*
X134352800Y-94247200D03*
X134352800Y-93747200D03*
X134352800Y-93247200D03*
X134352800Y-92747200D03*
X134352800Y-92247200D03*
X134352800Y-91747200D03*
X134352800Y-91247200D03*
X134352800Y-90747200D03*
X134352800Y-90247200D03*
X134352800Y-89747200D03*
X134352800Y-89247200D03*
X134352800Y-88747200D03*
X134352800Y-88247200D03*
X134352800Y-87747200D03*
X134352800Y-87247200D03*
X134352800Y-86747200D03*
X134352800Y-86247200D03*
X134352800Y-85747200D03*
X134352800Y-85247200D03*
X134352800Y-84747200D03*
X134352800Y-84247200D03*
X134352800Y-83747200D03*
X134352800Y-83247200D03*
X134352800Y-82747200D03*
X134352800Y-82247200D03*
X134352800Y-81747200D03*
X134352800Y-81247200D03*
X134352800Y-80747200D03*
X134352800Y-80247200D03*
D36*
X132440300Y-78334700D03*
X131940300Y-78334700D03*
X131440300Y-78334700D03*
X130940300Y-78334700D03*
X130440300Y-78334700D03*
X129940300Y-78334700D03*
X129440300Y-78334700D03*
X128940300Y-78334700D03*
X128440300Y-78334700D03*
X127940300Y-78334700D03*
X127440300Y-78334700D03*
X126940300Y-78334700D03*
X126440300Y-78334700D03*
X125940300Y-78334700D03*
X125440300Y-78334700D03*
X124940300Y-78334700D03*
X124440300Y-78334700D03*
X123940300Y-78334700D03*
X123440300Y-78334700D03*
X122940300Y-78334700D03*
X122440300Y-78334700D03*
X121940300Y-78334700D03*
X121440300Y-78334700D03*
X120940300Y-78334700D03*
X120440300Y-78334700D03*
X119940300Y-78334700D03*
X119440300Y-78334700D03*
X118940300Y-78334700D03*
X118440300Y-78334700D03*
X117940300Y-78334700D03*
X117440300Y-78334700D03*
X116940300Y-78334700D03*
X116440300Y-78334700D03*
X115940300Y-78334700D03*
X115440300Y-78334700D03*
X114940300Y-78334700D03*
%TD*%
D10*
%TO.C,R27*%
X145360400Y-46241200D03*
X143360400Y-46241200D03*
%TD*%
D18*
%TO.C,C220*%
X91316500Y-109690400D03*
X92451500Y-109690400D03*
%TD*%
D11*
%TO.C,R202*%
X95100400Y-96939600D03*
X97100400Y-96939600D03*
%TD*%
D12*
%TO.C,R19*%
X221197200Y-33252400D03*
X221197200Y-35252400D03*
%TD*%
M02*
